<svg width="55" height="51" viewBox="0 0 55 51" fill="none" xmlns="http://www.w3.org/2000/svg">
<g filter="url(#filter0_dd_13001_996)">
<path d="M27.1846 12.1722V17.5055M27.1846 22.8388H27.1979M25.3383 5.36115L14.3718 24.3033C13.7635 25.354 13.4594 25.8793 13.5044 26.3104C13.5436 26.6865 13.7406 27.0282 14.0464 27.2506C14.397 27.5055 15.004 27.5055 16.2181 27.5055H38.1511C39.3651 27.5055 39.9721 27.5055 40.3227 27.2506C40.6286 27.0282 40.8256 26.6865 40.8648 26.3104C40.9097 25.8793 40.6056 25.354 39.9973 24.3033L29.0308 5.36114C28.4247 4.31426 28.1217 3.79082 27.7263 3.61501C27.3814 3.46166 26.9877 3.46166 26.6428 3.61501C26.2475 3.79082 25.9444 4.31426 25.3383 5.36115Z" stroke="#FF4F4E" stroke-width="3" stroke-linecap="round" stroke-linejoin="round"/>
</g>
<defs>
<filter id="filter0_dd_13001_996" x="-0.814941" y="-1.82764" width="56" height="56" filterUnits="userSpaceOnUse" color-interpolation-filters="sRGB">
<feFlood flood-opacity="0" result="BackgroundImageFix"/>
<feColorMatrix in="SourceAlpha" type="matrix" values="0 0 0 0 0 0 0 0 0 0 0 0 0 0 0 0 0 0 127 0" result="hardAlpha"/>
<feMorphology radius="4" operator="erode" in="SourceAlpha" result="effect1_dropShadow_13001_996"/>
<feOffset dy="4"/>
<feGaussianBlur stdDeviation="3"/>
<feColorMatrix type="matrix" values="0 0 0 0 0.952941 0 0 0 0 0.470588 0 0 0 0 0.466667 0 0 0 0.16 0"/>
<feBlend mode="normal" in2="BackgroundImageFix" result="effect1_dropShadow_13001_996"/>
<feColorMatrix in="SourceAlpha" type="matrix" values="0 0 0 0 0 0 0 0 0 0 0 0 0 0 0 0 0 0 127 0" result="hardAlpha"/>
<feMorphology radius="3" operator="erode" in="SourceAlpha" result="effect2_dropShadow_13001_996"/>
<feOffset dy="10"/>
<feGaussianBlur stdDeviation="7.5"/>
<feColorMatrix type="matrix" values="0 0 0 0 0.952941 0 0 0 0 0.470588 0 0 0 0 0.466667 0 0 0 0.16 0"/>
<feBlend mode="normal" in2="effect1_dropShadow_13001_996" result="effect2_dropShadow_13001_996"/>
<feBlend mode="normal" in="SourceGraphic" in2="effect2_dropShadow_13001_996" result="shape"/>
</filter>
</defs>
</svg>
