<svg width="19" height="15" viewBox="0 0 19 15" fill="none" xmlns="http://www.w3.org/2000/svg">
<path d="M1.5 1.5L7.5 7.5M17.5 1.5L11.5 7.5M7.5 7.5L8.08579 8.08579C8.86684 8.86684 10.1332 8.86684 10.9142 8.08579L11.5 7.5M7.5 7.5L1.37868 13.6213M11.5 7.5L17.6213 13.6213M17.6213 13.6213C18.1642 13.0784 18.5 12.3284 18.5 11.5V2.5C18.5 1.39543 17.6046 0.5 16.5 0.5H2.5C1.39543 0.5 0.5 1.39543 0.5 2.5V11.5C0.5 12.3284 0.835787 13.0784 1.37868 13.6213M17.6213 13.6213C17.0784 14.1642 16.3284 14.5 15.5 14.5H3.5C2.67157 14.5 1.92157 14.1642 1.37868 13.6213" stroke="#CDE9DF" stroke-linecap="round"/>
</svg>
