<svg width="20" height="20" viewBox="0 0 20 20" fill="none" xmlns="http://www.w3.org/2000/svg">
<path d="M11.6657 18.0181L9.59895 16.6127C6.95932 14.8178 4.68225 12.5407 2.8873 9.90105L1.48188 7.83426C0.227977 5.99028 0.622045 3.48943 2.38223 2.1204L3.28514 1.41814C4.73923 0.287177 6.84777 0.629344 7.8696 2.16209L8.30882 2.82092C8.71564 3.43114 8.76429 4.21257 8.4363 4.86854C7.83292 6.07531 7.86392 7.5021 8.51915 8.68152L8.68393 8.97812C9.11296 9.75036 9.74964 10.387 10.5219 10.8161L10.8185 10.9808C11.9979 11.6361 13.4247 11.6671 14.6315 11.0637C15.2874 10.7357 16.0689 10.7844 16.6791 11.1912L17.3379 11.6304C18.8707 12.6522 19.2128 14.7608 18.0819 16.2149L17.3796 17.1178C16.0106 18.878 13.5097 19.272 11.6657 18.0181Z" stroke="#CDE9DF" stroke-width="1.5" stroke-linecap="round"/>
</svg>
